<svg width="3756" height="3757" viewBox="0 0 3756 3757" fill="none" xmlns="http://www.w3.org/2000/svg">
<path d="M1878.04 0C841.15 0 -1.07999 842.06 0.240005 1878C0.500005 2085.26 33.55 2284.63 95.58 2471.12H657.46V891.25L1878.04 2111.82L3098.56 891.25V2471.15H3660.56C3722.68 2284.67 3755.56 2085.3 3755.93 1878.03C3757.7 841.01 2915.04 0.25 1878.04 0.25V0Z" fill="#F26822"/>
<path d="M1597.34 2392.42L1064.67 1859.72V2853.86H657.42L273.13 2853.93C602.76 3394.73 1198.48 3756.49 1878.04 3756.49C2557.6 3756.49 3153.35 3394.65 3483.04 2853.85H2691.29V1859.72L2158.59 2392.42L1877.98 2673.03L1597.36 2392.42H1597.34Z" fill="#F26822"/>
</svg>
